<svg xmlns="http://www.w3.org/2000/svg" viewBox="0 0 451.28 346.96"><defs><style>.cls-1{fill:#101031;}.cls-2{fill:#e8144f;}.cls-3{fill:#04b7ab;}</style></defs><g id="Layer_2" data-name="Layer 2"><g id="Layer_1-2" data-name="Layer 1"><rect class="cls-1" width="451.28" height="346.96" rx="48.42"/><path class="cls-2" d="M120.15,205.43c-14.84,16.82-29,33.3-43.63,49.29-8.71,9.49-17.93,9.93-28.07,2.58-16.45-11.94-17.4-18.92-4-34,14.65-16.47,29.62-32.67,45-49.64C74.35,157,59.45,140.68,44.64,124.33c-13.34-14.72-12.78-21.45,2.6-33.6,11.08-8.76,20-8.52,29.56,1.92,12.56,13.7,24.55,27.92,36.8,41.92,2.05,2.33,4.14,4.62,6.59,7.35,13.53-15.54,26.57-30.68,39.79-45.67C174.66,79.6,192.51,82,203.1,101.77c4.51,8.41-.32,14.27-5.14,19.74-12.52,14.22-25.47,28.07-38.22,42.09-2.8,3.08-5.45,6.3-8.82,10.2,15.34,17,30.43,33.45,45.25,50.16,5,5.65,11.32,11.26,7.56,20.25-3.84,9.16-16.51,18.69-25.42,17.15a31.88,31.88,0,0,1-16.64-8.89C147.48,237.45,134.23,221.54,120.15,205.43Z"/><path class="cls-3" d="M425.42,172.55c.37,46.14-32.23,96-92.76,96.28-61.73.27-95.32-52.48-94.23-94.88,1.39-54.3,40.84-95.95,93.4-95.82C383.66,78.25,425.54,120.51,425.42,172.55Zm-49.72,1.69c.07-22.14-10.63-39.32-29.39-47.14-15.65-6.52-31.85-2.44-45.25,11.41-14.66,15.16-17.53,42.9-6.34,61.46,10.67,17.7,30.5,26.46,48.38,21.37C362.59,215.78,375.63,197,375.7,174.24Z"/></g></g></svg>